<?xml version="1.0" encoding="UTF-8" standalone="no"?>
<svg
   xmlns:dc="http://purl.org/dc/elements/1.1/"
   xmlns:cc="http://creativecommons.org/ns#"
   xmlns:rdf="http://www.w3.org/1999/02/22-rdf-syntax-ns#"
   xmlns:svg="http://www.w3.org/2000/svg"
   xmlns="http://www.w3.org/2000/svg"
   version="1.1"
   id="svg28"
   xml:space="preserve"
   width="454.66666"
   height="454.66666"
   viewBox="0 0 454.66666 454.66666"><metadata
     id="metadata34"><rdf:RDF><cc:Work
         rdf:about=""><dc:format>image/svg+xml</dc:format><dc:type
           rdf:resource="http://purl.org/dc/dcmitype/StillImage" /><dc:title></dc:title></cc:Work></rdf:RDF></metadata><defs
     id="defs32"><clipPath
       clipPathUnits="userSpaceOnUse"
       id="clipPath46"><path
         d="M 0,0 H 341 V 341 H 0 Z"
         id="path44" /></clipPath></defs><g
     id="g36"
     transform="matrix(1.3333333,0,0,-1.3333333,0,454.66667)"><g
       id="g38" /><g
       id="g40"><g
         id="g42"
         clip-path="url(#clipPath46)" /></g><path
       d="M 0.5,248.9923 C 0.5,299.5306 41.46941,340.5 92.00775,340.5 H 248.9923 c 50.5383,0 91.5077,-40.9694 91.5077,-91.5077 V 92.00773 C 340.5,41.4694 299.5306,0.4999874 248.9923,0.4999874 H 92.00775 C 41.46941,0.4999874 0.5,41.4694 0.5,92.00773 Z"
       style="fill:#191c1c;fill-opacity:1;fill-rule:nonzero;stroke:none"
       id="path52" /><g
       id="g54"
       transform="matrix(7.874016e-5,0,0,-7.874016e-5,0.5,340.5)"><path
         d="M 0,1162148 C 0,520311.5 520311.5,0 1162148,0 h 1993704 c 641837,0 1162148,520311.5 1162148,1162148 v 1993704 c 0,641837 -520311,1162148 -1162148,1162148 H 1162148 C 520311.5,4318000 0,3797689 0,3155852 Z"
         style="fill:none;stroke:#191c1c;stroke-width:12700;stroke-linecap:butt;stroke-linejoin:miter;stroke-miterlimit:8;stroke-dasharray:none;stroke-opacity:1"
         id="path56" /></g><g
       id="g58"
       transform="matrix(7.874016e-5,0,0,-7.874016e-5,109,273)"><path
         d="M 0,812800 C 0,363902.9 363902.9,0 812800,0 c 448897,0 812800,363902.9 812800,812800 0,448897 -363903,812800 -812800,812800 C 363902.9,1625600 0,1261697 0,812800 Z"
         style="fill:none;stroke:#ffffff;stroke-width:381000;stroke-linecap:butt;stroke-linejoin:miter;stroke-miterlimit:8;stroke-dasharray:none;stroke-opacity:1"
         id="path60" /></g><path
       d="m 67.5,192.8133 c 0,8.6635 7.02318,15.6867 15.6867,15.6867 h 180.6266 c 8.6635,0 15.6867,-7.0232 15.6867,-15.6867 V 82.18671 c 0,-8.66353 -7.0232,-15.68672 -15.6867,-15.68672 H 83.1867 c -8.66352,0 -15.6867,7.02319 -15.6867,15.68672 z"
       style="fill:#ffffff;fill-opacity:1;fill-rule:nonzero;stroke:none"
       id="path62" /><g
       id="g64"
       transform="matrix(7.874016e-5,0,0,-7.874016e-5,67.5,208.5)"><path
         d="M 0,199221.3 C 0,89194.4 89194.33,0 199221.1,0 H 2493179 c 110027,0 199221,89194.4 199221,199221.3 V 1604179 c 0,110027 -89194,199221 -199221,199221 H 199221.1 C 89194.33,1803400 0,1714206 0,1604179 Z"
         style="fill:none;stroke:#ffffff;stroke-width:12700;stroke-linecap:butt;stroke-linejoin:miter;stroke-miterlimit:8;stroke-dasharray:none;stroke-opacity:1"
         id="path66" /></g><path
       d="m 151.5,148 c 0,11.8741 9.6259,21.5 21.5,21.5 11.8741,0 21.5,-9.6259 21.5,-21.5 0,-11.8741 -9.6259,-21.5 -21.5,-21.5 -11.8741,0 -21.5,9.6259 -21.5,21.5 z"
       style="fill:#191c1c;fill-opacity:1;fill-rule:nonzero;stroke:none"
       id="path68" /><g
       id="g70"
       transform="matrix(7.874016e-5,0,0,-7.874016e-5,151.5,169.5)"><path
         d="M 0,273050 C 0,122248.6 122248.6,0 273050,0 423851.3,0 546100,122248.6 546100,273050 546100,423851.3 423851.3,546100 273050,546100 122248.6,546100 0,423851.3 0,273050 Z"
         style="fill:none;stroke:#000000;stroke-width:12700;stroke-linecap:butt;stroke-linejoin:miter;stroke-miterlimit:8;stroke-dasharray:none;stroke-opacity:1"
         id="path72" /></g><path
       d="m 163.5,109.5 c 0,5.5228 4.4772,10 10,10 5.5228,0 10,-4.4772 10,-10 0,-5.5228 -4.4772,-10 -10,-10 -5.5228,0 -10,4.4772 -10,10 z"
       style="fill:#191c1c;fill-opacity:1;fill-rule:nonzero;stroke:none"
       id="path74" /><g
       id="g76"
       transform="matrix(7.874016e-5,0,0,-7.874016e-5,163.5,119.5)"><path
         d="M 0,127000 C 0,56859.84 56859.84,0 127000,0 c 70140.2,0 127000,56859.84 127000,127000 0,70140.2 -56859.8,127000 -127000,127000 C 56859.84,254000 0,197140.2 0,127000 Z"
         style="fill:none;stroke:#000000;stroke-width:12700;stroke-linecap:butt;stroke-linejoin:miter;stroke-miterlimit:8;stroke-dasharray:none;stroke-opacity:1"
         id="path78" /></g><path
       d="m 163.5,150.5 h 20 v -41 h -20 z"
       style="fill:#191c1c;fill-opacity:1;fill-rule:nonzero;stroke:none"
       id="path80" /><g
       id="g82"
       transform="matrix(7.874016e-5,0,0,-7.874016e-5,163.5,150.5)"><path
         d="M 0,0 H 254000 V 520700 H 0 Z"
         style="fill:none;stroke:#191c1c;stroke-width:12700;stroke-linecap:butt;stroke-linejoin:miter;stroke-miterlimit:8;stroke-dasharray:none;stroke-opacity:1"
         id="path84" /></g></g></svg>
